<svg width="84" height="84" viewBox="0 0 84 84" fill="none" xmlns="http://www.w3.org/2000/svg">
<path d="M41.9999 21.1666C39.7083 21.1666 37.8333 23.0416 37.8333 25.3333V37.8333H25.3333C23.0416 37.8333 21.1666 39.7083 21.1666 42C21.1666 44.2916 23.0416 46.1666 25.3333 46.1666H37.8333V58.6666C37.8333 60.9583 39.7083 62.8333 41.9999 62.8333C44.2916 62.8333 46.1666 60.9583 46.1666 58.6666V46.1666H58.6666C60.9583 46.1666 62.8333 44.2916 62.8333 42C62.8333 39.7083 60.9583 37.8333 58.6666 37.8333H46.1666V25.3333C46.1666 23.0416 44.2916 21.1666 41.9999 21.1666ZM41.9999 0.333313C18.9999 0.333313 0.333252 19 0.333252 42C0.333252 65 18.9999 83.6667 41.9999 83.6667C64.9999 83.6667 83.6666 65 83.6666 42C83.6666 19 64.9999 0.333313 41.9999 0.333313ZM41.9999 75.3333C23.6249 75.3333 8.66659 60.375 8.66659 42C8.66659 23.625 23.6249 8.66665 41.9999 8.66665C60.3749 8.66665 75.3333 23.625 75.3333 42C75.3333 60.375 60.3749 75.3333 41.9999 75.3333Z" fill="#434A42" fill-opacity="0.69"/>
</svg>
