<svg width="80" height="80" viewBox="0 0 80 80" fill="transparent" xmlns="http://www.w3.org/2000/svg">
<path d="M9.66675 23.8333C10.5001 23 11.4868 22.5833 12.6268 22.5833C13.7668 22.5833 14.7523 23 15.5834 23.8333L40.0001 48.25L64.5001 23.75C65.2779 22.9722 66.2501 22.5833 67.4167 22.5833C68.5834 22.5833 69.5834 23 70.4167 23.8333C71.2501 24.6666 71.6667 25.6533 71.6667 26.7933C71.6667 27.9333 71.2501 28.9189 70.4167 29.75L42.3334 57.75C42.0001 58.0833 41.639 58.32 41.2501 58.46C40.8612 58.6 40.4445 58.6689 40.0001 58.6666C39.5556 58.6666 39.139 58.5966 38.7501 58.4566C38.3612 58.3167 38.0001 58.0811 37.6667 57.75L9.58342 29.6666C8.80564 28.8889 8.41675 27.93 8.41675 26.79C8.41675 25.65 8.83342 24.6644 9.66675 23.8333Z" fill="black"/>
</svg>
