<svg width="26" height="8" viewBox="0 0 26 8" fill="none" xmlns="http://www.w3.org/2000/svg">
<path d="M16.2813 4C16.2813 4.64897 16.0888 5.28337 15.7283 5.82297C15.3677 6.36256 14.8553 6.78313 14.2557 7.03148C13.6561 7.27983 12.9964 7.34481 12.3599 7.2182C11.7234 7.09159 11.1387 6.77909 10.6798 6.32019C10.2209 5.8613 9.90841 5.27664 9.7818 4.64014C9.65519 4.00364 9.72017 3.34389 9.96852 2.74432C10.2169 2.14475 10.6374 1.63229 11.177 1.27174C11.7166 0.911192 12.351 0.71875 13 0.71875C13.8702 0.71875 14.7048 1.06445 15.3202 1.67981C15.9356 2.29516 16.2813 3.12976 16.2813 4ZM3.625 0.71875C2.97603 0.71875 2.34164 0.911192 1.80204 1.27174C1.26244 1.63229 0.841872 2.14475 0.593522 2.74432C0.345172 3.34389 0.280192 4.00364 0.4068 4.64014C0.533408 5.27664 0.845916 5.8613 1.30481 6.32019C1.7637 6.77909 2.34836 7.09159 2.98486 7.2182C3.62136 7.34481 4.28111 7.27983 4.88068 7.03148C5.48025 6.78313 5.99271 6.36256 6.35326 5.82297C6.71381 5.28337 6.90625 4.64897 6.90625 4C6.90625 3.12976 6.56055 2.29516 5.9452 1.67981C5.32984 1.06445 4.49524 0.71875 3.625 0.71875ZM22.375 0.71875C21.726 0.71875 21.0916 0.911192 20.552 1.27174C20.0124 1.63229 19.5919 2.14475 19.3435 2.74432C19.0952 3.34389 19.0302 4.00364 19.1568 4.64014C19.2834 5.27664 19.5959 5.8613 20.0548 6.32019C20.5137 6.77909 21.0984 7.09159 21.7349 7.2182C22.3714 7.34481 23.0311 7.27983 23.6307 7.03148C24.2303 6.78313 24.7427 6.36256 25.1033 5.82297C25.4638 5.28337 25.6563 4.64897 25.6563 4C25.6563 3.5691 25.5714 3.14242 25.4065 2.74432C25.2416 2.34622 24.9999 1.9845 24.6952 1.67981C24.3905 1.37511 24.0288 1.13342 23.6307 0.96852C23.2326 0.803622 22.8059 0.71875 22.375 0.71875Z" fill="#F1ECDA"/>
</svg>
