<?xml version="1.0" encoding="UTF-8" standalone="no"?>
<svg
   data-name="Layer 1"
   width="676"
   height="676"
   viewBox="0 0 676 676"
   version="1.1"
   id="svg38"
   sodipodi:docname="new_status.svg"
   inkscape:version="1.2.1 (9c6d41e410, 2022-07-14)"
   xml:space="preserve"
   xmlns:inkscape="http://www.inkscape.org/namespaces/inkscape"
   xmlns:sodipodi="http://sodipodi.sourceforge.net/DTD/sodipodi-0.dtd"
   xmlns="http://www.w3.org/2000/svg"
   xmlns:svg="http://www.w3.org/2000/svg"><defs
     id="defs42" /><sodipodi:namedview
     id="namedview40"
     pagecolor="#ffffff"
     bordercolor="#000000"
     borderopacity="0.25"
     inkscape:showpageshadow="2"
     inkscape:pageopacity="0.0"
     inkscape:pagecheckerboard="0"
     inkscape:deskcolor="#d1d1d1"
     showgrid="false"
     inkscape:zoom="0.59467455"
     inkscape:cx="221.97015"
     inkscape:cy="300.16418"
     inkscape:window-width="1920"
     inkscape:window-height="991"
     inkscape:window-x="-9"
     inkscape:window-y="-9"
     inkscape:window-maximized="1"
     inkscape:current-layer="g2524" /><g
     id="g2524"
     inkscape:label="character"
     sodipodi:insensitive="true"
     style="display:inline"><path
       d="m 938,450 a 337.45265,337.45265 0 0 1 -17.85,108.68 q -1.02008,3 -2.09,5.98 a 338.39278,338.39278 0 0 1 -53.77,96.05 q -10.32,12.945 -21.87,24.82 -11.55,11.895 -24.25,22.63 a 336.248,336.248 0 0 1 -165.78,75.8 h -0.01 q -11.7,1.815 -23.63,2.83 -14.205,1.2 -28.75,1.21 A 336.94,336.94 0 0 1 358.09,686.05 q -3.315,-3.39 -6.53,-6.88 -8.01,-8.685 -15.41,-17.91 -4.155,-5.19 -8.11,-10.54 A 336.714,336.714 0 0 1 287.8,579.74 332.25383,332.25383 0 0 1 276.1,546.9 c -0.24,-0.79 -0.47,-1.57995 -0.7,-2.37 q -0.75,-2.55 -1.45,-5.13 A 338.38,338.38 0 0 1 262,450 c 0,-186.67 151.33,-338 338,-338 186.67,0 338,151.33 338,338 z"
       transform="translate(-262,-112)"
       fill="#f2f2f2"
       id="path2" /><path
       d="m 692.33,753.02 -6.84,24.07 a 337.62955,337.62955 0 0 1 -33.1,6.87 h -0.01 q -11.7,1.815 -23.63,2.83 L 651,755 l 3.16,-0.28 z"
       transform="translate(-262,-112)"
       fill="#2f2e41"
       id="path4" /><path
       d="m 864.29,660.71 q -10.32,12.945 -21.87,24.82 l -26.38,0.02 -141.87,0.16 -25.54,0.03 -16.98,0.02 -25.26,0.02 -19.43,0.02 -35.89,0.04 -21.17,0.03 -44.58,0.04 -21.28,0.03 -58.97,0.06 -37.04,0.04 -9.94,0.01 q -3.315,-3.39 -6.53,-6.88 -8.01,-8.685 -15.41,-17.91 l 20.58,-0.02 14.02,-0.01 32.46,-0.04 62.64,-0.06 21.17,-0.02 8.56,-0.01 h 0.03 l 6.72,-0.01 3.01,-0.01 7.71,-0.01 h 3.26 l 22.86,-0.02 49.31,-0.06 21.7,-0.02 20.78,-0.02 19.48,-0.02 27.95,-0.03 149.28,-0.15 z"
       transform="translate(-262,-112)"
       fill="#cccccc"
       id="path6" /><path
       d="m 585.54031,429.08343 78.525,92.79429 66.95029,28.65928 17.84505,-34.68754 c -16.37136,-19.47847 -69.78911,-42.85782 -69.78911,-42.85782 l -72.53371,-65.05906 c -0.1299,-0.47864 -0.26979,-0.95671 -0.44346,-1.43114 a 17.23112,17.23112 0 1 0 -20.55406,22.582 z"
       transform="translate(-262,-112)"
       fill="#a0616a"
       id="path16" /><g
       id="g2588"
       inkscape:label="beer"
       transform="matrix(0.2838756,0,0,0.2838756,23.096109,409.1941)"
       style="display:inline"><path
         d="m 419.92708,374.48433 a 140.91324,140.91324 0 0 0 17.31813,84.95094 60.682,60.682 0 0 0 11.55714,15.097 34.80388,34.80388 0 0 0 16.40057,8.15713 c 5.6624,1.23856 11.59785,1.84976 16.86057,4.4432 a 21.31052,21.31052 0 0 1 10.91567,13.58647 c 2.08024,7.19161 1.45236,14.7018 0.58312,22.0248 -0.96513,8.13079 -2.09642,16.56085 0.65824,24.478 0.33376,0.95928 -1.17423,1.42107 -1.50749,0.46325 -4.79262,-13.77454 1.69353,-28.13182 -0.31789,-42.17385 -0.93857,-6.55227 -3.85743,-12.8614 -9.76684,-16.28837 -5.16753,-2.99674 -11.28768,-3.63224 -17.03182,-4.83677 a 37.13845,37.13845 0 0 1 -16.3334,-7.37842 56.099,56.099 0 0 1 -12.09493,-14.597 136.71108,136.71108 0 0 1 -15.89612,-39.66128 143.41213,143.41213 0 0 1 -2.88038,-48.626 c 0.113,-1.006 1.64778,-0.63857 1.53548,0.36085 z"
         fill="#ffffff"
         id="path1959" /><path
         d="m 462.24916,482.43957 a 40.74849,40.74849 0 0 0 1.26158,-29.66949 c -0.33036,-0.96042 1.17753,-1.42251 1.50748,-0.46325 a 42.38456,42.38456 0 0 1 -1.37554,30.87112 c -0.41308,0.92909 -1.80435,0.18566 -1.39352,-0.73838 z"
         fill="#ffffff"
         id="path1963" /><path
         d="M 666.55358,555.74527 H 500.54577 A 35.03577,35.03577 0 0 1 465.54968,520.74918 V 264.74137 a 35.03577,35.03577 0 0 1 34.99609,-34.9961 h 166.00781 a 35.03578,35.03578 0 0 1 34.9961,34.9961 v 256.00781 a 35.03578,35.03578 0 0 1 -34.9961,34.99609 z"
         fill="#ffffff"
         id="path2007" /><path
         d="M 648.55358,530.32242 H 518.54577 A 34.53528,34.53528 0 0 1 484.04968,495.82633 V 289.66468 a 34.53528,34.53528 0 0 1 34.49609,-34.4961 h 130.00781 a 34.53529,34.53529 0 0 1 34.4961,34.4961 v 206.16165 a 34.53529,34.53529 0 0 1 -34.4961,34.49609 z"
         fill="#000000"
         id="path2009" /><rect
         x="467.02206"
         y="455.28873"
         width="234"
         height="54"
         fill="#3f3d56"
         id="rect2011" /><path
         d="M 666.55358,555.74527 H 500.54577 A 35.03577,35.03577 0 0 1 465.54968,520.74918 V 264.74137 a 35.03577,35.03577 0 0 1 34.99609,-34.9961 h 166.00781 a 35.03578,35.03578 0 0 1 34.9961,34.9961 v 256.00781 a 35.03578,35.03578 0 0 1 -34.9961,34.99609 z m -166.00781,-324 a 33.03333,33.03333 0 0 0 -32.99609,32.9961 v 256.00781 a 33.03333,33.03333 0 0 0 32.99609,32.99609 h 166.00781 a 33.03333,33.03333 0 0 0 32.9961,-32.99609 V 264.74137 a 33.03334,33.03334 0 0 0 -32.9961,-32.9961 z"
         fill="#3f3d56"
         id="path2015" /><path
         d="m 674.02209,221.28873 c -0.52344,0 -1.04248,0.0186 -1.5586,0.048 a 27.00656,27.00656 0 0 0 -37.03027,-33.43835 c -4.32764,-12.18189 -13.62988,-20.60968 -24.41113,-20.60968 -10.78125,0 -20.0835,8.42779 -24.41114,20.60968 a 27.03631,27.03631 0 0 0 -23.17773,0 c -4.32764,-12.18189 -13.62988,-20.60968 -24.41113,-20.60968 -10.78125,0 -20.0835,8.42779 -24.41114,20.60968 a 27.00641,27.00641 0 0 0 -37.02441,33.45489 c -0.51807,-0.0395 -1.03906,-0.0646 -1.56445,-0.0646 -14.91162,0 -27,16.11774 -27,36 0,19.88226 12.08838,36 27,36 12.28125,0 22.64013,-10.93683 25.91553,-25.90131 a 27.01184,27.01184 0 0 0 30.67333,5.29163 c 4.32764,12.18188 13.62989,20.60968 24.41114,20.60968 12.28125,0 22.64013,-10.93683 25.91553,-25.90131 a 27.01184,27.01184 0 0 0 30.67333,5.29163 c 4.32764,12.18188 13.62989,20.60968 24.41114,20.60968 10.78125,0 20.08349,-8.4278 24.41113,-20.60968 a 27.00151,27.00151 0 1 0 11.58887,-51.39032 z"
         fill="#f0f0f0"
         id="path2019"
         style="fill:#bfbfbf" /><circle
         cx="530.02209"
         cy="293.28873"
         r="5"
         fill="#ffffff"
         id="circle2021" /><circle
         cx="561.02209"
         cy="378.28873"
         r="5"
         fill="#ffffff"
         id="circle2023" /><circle
         cx="593.02209"
         cy="320.28873"
         r="5"
         fill="#ffffff"
         id="circle2025" /><circle
         cx="557.02209"
         cy="338.28873"
         r="5"
         fill="#ffffff"
         id="circle2027" /><circle
         cx="620.02209"
         cy="392.28873"
         r="5"
         fill="#ffffff"
         id="circle2029" /><circle
         cx="638.02209"
         cy="293.28873"
         r="5"
         fill="#ffffff"
         id="circle2031" /><path
         d="m 700.54968,474.28873 v -2 a 93.27173,93.27173 0 0 0 0,-186.54346 v -2 a 95.27173,95.27173 0 0 1 0,190.54346 z"
         fill="#3f3d56"
         id="path2033" /><path
         d="m 701.02209,456.28873 h -1 v -2.52149 h 2 v 0.51465 a 71.47249,71.47249 0 0 0 -1,-142.938 v -2 a 73.472415,73.472415 0 0 1 0,146.94483 z"
         fill="#3f3d56"
         id="path2035" /></g><path
       d="m 741.86308,505.30705 -17.3206,44.34448 0.0173,0.17253 c 1.72662,17.03672 28.34206,32.81193 50.36559,43.045 a 31.59624,31.59624 0 0 0 40.98449,-13.455 v 0 a 31.66589,31.66589 0 0 0 -2.02245,-33.36659 L 796.401,521.56 Z"
       transform="translate(-262,-112)"
       fill="#252525"
       id="path18" /><path
       d="m 842.26,589.29 -9.21,33.15 -5.38,38.31 -1.66,11.78 -0.04,0.25 -10.23,9.72 0.3,3.05 0.8,8.13 1.33,14.48 a 336.484,336.484 0 0 1 -165.78,75.8 c -0.01,0.01 -0.01,0 -0.01,0 -8.17,-2.34 -14.58,-4.88 -17.16,-6.73 -1.02,-0.72 -1.48,-1.36 -1.46,-2.01 0.11,-4.33 12.4,-19.87 14.26,-22.2 l 4.88,-20.2 9.96,-3.96 -2.46,-14.21 13.32,-14.06 0.38,-14.47 0.07,-0.41 4.22,-24.81 8.42,-49.41 0.86,-5.06 -0.78,-39.02 -0.23,-11.82 -0.27,-13.48 a 55.41152,55.41152 0 0 1 0.76,-10.35 53.31269,53.31269 0 0 1 1.84,-7.6 55.24513,55.24513 0 0 1 27.4,-32.29 c 0.51,-0.26 1.02,-0.51 1.54,-0.76 0,0 0,-0.01 0.01,0 a 54.90616,54.90616 0 0 1 12.55,-4.17 l 1.26,-2.24 12.34,-21.92 37.81994,0.97 22.56,35.31 18.83,18.69 A 73.31171,73.31171 0 0 1 842.26,589.29 Z"
       transform="translate(-262,-112)"
       fill="#252525"
       id="path20" /><circle
       cx="497.69949"
       cy="289.84958"
       r="50.1036"
       fill="#a0616a"
       id="circle22" /><path
       d="m 753.58721,452.62357 a 136.26549,136.26549 0 0 0 23.18064,-1.62 c 7.59923,-1.54533 24.59947,-14.00321 29.33857,-21.4998 v 0 c 3.52093,-5.56988 5.77245,-14.26767 7.04152,-20.583 a 60.91435,60.91435 0 0 0 -10.65372,-48.35812 19.24493,19.24493 0 0 0 -7.77316,-6.63436 c -0.27845,-0.10888 -0.565,-0.20537 -0.85455,-0.28786 a 23.74467,23.74467 0 0 1 -11.81175,-7.30888 19.58284,19.58284 0 0 0 -1.96357,-2.02086 29.24834,29.24834 0 0 0 -12.20275,-6.12729 c -7.25395,-1.94141 -17.752,-0.0143 -31.20185,5.73333 -6.75724,2.88773 -14.14724,1.84266 -19.83225,0.60946 a 1.86017,1.86017 0 0 0 -1.75136,0.6 13.13152,13.13152 0 0 1 -8.92486,3.55767 c -2.032,0.0892 -4.16392,2.90277 -6.74081,6.57173 -0.5847,0.83285 -1.267,1.80487 -1.75914,2.39607 l -0.0661,-1.13583 -1.14926,1.26711 a 15.93482,15.93482 0 0 0 7.19416,25.96108 31.07643,31.07643 0 0 0 6.2501,0.996 c 1.27917,0.11508 2.60234,0.23412 3.87033,0.45412 a 24.02454,24.02454 0 0 1 17.85279,15.59016 6.28287,6.28287 0 0 0 9.483,3.05032 10.38066,10.38066 0 0 1 9.459,-1.72244 6.8913,6.8913 0 0 1 3.046,3.455 8.98034,8.98034 0 0 0 3.40768,3.97566 c 5.14969,2.65507 5.50461,14.41709 3.6551,24.22218 -1.78279,9.45122 -5.307,16.28835 -8.57,16.62633 -2.512,0.25987 -2.79926,0.43831 -2.98113,0.88257 l -0.16247,0.39771 0.28219,0.372 a 10.26073,10.26073 0 0 0 4.33762,0.57994 z"
       transform="translate(-262,-112)"
       fill="#2f2e41"
       id="path24" /><path
       d="M 721.13324,591.12423 701.8146,552.60874 c -28.04093,1.91543 -83.6946,34.33734 -83.6946,34.33734 l -105.29872,22.32555 a 19.02347,19.02347 0 1 0 5.18644,32.5081 L 651.954,632.17847 Z"
       transform="translate(-262,-112)"
       fill="#a0616a"
       id="path26" /><path
       d="m 713.34148,597.44838 50.45383,-37.4945 8.88732,-32.0271 a 34.98194,34.98194 0 0 0 -10.52128,-35.39424 v 0 a 34.89929,34.89929 0 0 0 -47.624,1.53654 c -18.98655,18.95124 -40.64184,45.39 -35.99009,63.72324 l 0.0471,0.18583 z"
       transform="translate(-262,-112)"
       fill="#252525"
       id="path28" /><path
       d="m 348.48,548.11 c -0.06,0.09 -0.12,0.18 -0.19,0.28 a 48.04572,48.04572 0 0 0 -6,-0.01 q -1.70994,0.105 -3.42,0.33 a 7.17893,7.17893 0 0 0 -3.08,13.02 l 0.12,0.08 c 0.09,0.06 0.16,0.11 0.25,0.17 a 70.53036,70.53036 0 0 1 -48.36,17.76 332.25383,332.25383 0 0 1 -11.7,-32.84 43.49067,43.49067 0 0 1 19.33,-10.51 c 14.5,-3.5 30.68,0.45 45.19,-0.99 6.98,-0.69 11.83,6.92 7.86,12.71 z"
       transform="translate(-262,-112)"
       fill="#ffffff"
       id="path30" /><path
       d="m 361.17,436.69 c -0.04,0.11 -0.0799,0.23 -0.13,0.35 -1.14,0.07 -2.28,0.19 -3.42,0.34 a 7.1723,7.1723 0 0 0 -3.08,13.01 l 0.12,0.09 a 70.90452,70.90452 0 0 1 -6.34,8.78 73.50659,73.50659 0 0 1 -53.01,25.53 c -0.66,0.02 -1.3,0.04 -1.95,0.04 a 174.57918,174.57918 0 0 1 -10.84,44.02 160.236,160.236 0 0 1 -7.12,15.68 q -0.75,-2.55 -1.45,-5.13 c 0.12,-0.23 0.23,-0.44995 0.34,-0.68 a 161.94169,161.94169 0 0 0 6.99,-16.77 q 2.47494,-7.035 4.32,-14.25 a 170.46277,170.46277 0 0 0 1.04,-79.74 45.36209,45.36209 0 0 1 -8.46,-25.83 34.64872,34.64872 0 0 1 1.29,-9.88 c 0.77,0.51 1.58,0.99 2.38,1.44 0.25,0.14 0.51,0.28 0.77,0.42 l 0.09,0.05 a 5.23769,5.23769 0 0 0 7.59,-5.81 c -0.14,-0.61 -0.29,-1.22 -0.43,-1.83 -0.22,-0.94 -0.45,-1.88 -0.66,-2.82 a 1.56671,1.56671 0 0 1 -0.08,-0.29 c -0.25,-1.07 -0.51,-2.13 -0.76,-3.2 a 15.11766,15.11766 0 0 1 6.57,-2.16 c 8.01,-0.64 15.41,6.07 17.18,13.9 1.8,7.84 -1.19,16.18 -6.17,22.48 -4.27,5.39 -9.88,9.52 -15.72,13.2 0.13,0.6 0.28,1.19 0.41,1.78 a 172.44785,172.44785 0 0 1 3.76,33.33 c 3.56,-10.62 11.27,-21.75 18.25,-27.96 7.95,-7.07 18.43,-11.2 28.19,-15.92 11.71,-5.67 24.69,5.56 20.33,17.83 z"
       transform="translate(-262,-112)"
       fill="#ffffff"
       id="path32" /><path
       d="m 898.92,591.47 c 1.67,2.12 3.4,4.23 5.13,6.35 a 335.12226,335.12226 0 0 1 -20.06,35.52 q -0.825,-0.58494 -1.65,-1.17 a 2.11907,2.11907 0 0 1 -0.25,-0.16 c -2.05,-1.46 -4.11005,-2.9 -6.16,-4.36005 v -0.01 a 70.003,70.003 0 0 1 -2.81,-17.7 5.288,5.288 0 0 0 1.23,-9.86 c -0.27,-0.47 -0.46,-0.81 -0.73,-1.29 0.01,-0.12 0.03,-0.25 0.04,-0.37 C 875.23,585.93 891.15,581.57 898.92,591.47 Z"
       transform="translate(-262,-112)"
       fill="#ffffff"
       id="path34" /><path
       d="m 916.87,548.67 q 1.8,4.95 3.28,10.01 -1.02008,3 -2.09,5.98 -0.405,-1.575 -0.84,-3.15 a 161.95532,161.95532 0 0 0 -5.85,-17.2 q -2.79,-6.915 -6.18,-13.54 a 170.35634,170.35634 0 0 0 -51.96,-60.5 45.35008,45.35008 0 0 1 -23.43,-13.78 34.85779,34.85779 0 0 1 -5.57,-8.26 c 0.92,-0.13 1.84,-0.31 2.74,-0.5 0.28,-0.06 0.57,-0.13 0.85,-0.19 l 0.11,-0.02 a 5.24142,5.24142 0 0 0 1.85,-9.38 c -0.51,-0.37 -1.03,-0.73 -1.54,-1.09 -0.78,-0.57 -1.57,-1.11 -2.36,-1.67 a 2.48881,2.48881 0 0 1 -0.24,-0.17 c -0.9,-0.63995 -1.8,-1.26 -2.69,-1.91 a 15.19516,15.19516 0 0 1 3.49,-5.96 c 5.59,-5.77 15.57,-5.64 22.09,-0.94 6.53,4.7 9.81,12.93 10.23,20.95 0.37,6.87 -1.11,13.67 -3.06,20.3 0.49,0.36005 1,0.7 1.49,1.07 a 171.32637,171.32637 0 0 1 24.86,22.51 c -4.35,-10.32 -5.93,-23.78 -4.8,-33.05 1.29,-10.56 6.42,-20.59 10.62,-30.58 5.03,-12 22.19,-12.16 27.03,-0.08 0.05,0.12 0.1,0.23 0.14,0.35 q -1.215,1.215 -2.34,2.52 a 7.175,7.175 0 0 0 6.29,11.8 l 0.15,-0.02 a 72.0958,72.0958 0 0 1 1.06,10.79 73.50775,73.50775 0 0 1 -22.88,54.2 c -0.48,0.45 -0.95,0.89 -1.44,1.32 a 170.65756,170.65756 0 0 1 12.45,20.67 172.445,172.445 0 0 1 8.54,19.52 z"
       transform="translate(-262,-112)"
       fill="#ffffff"
       id="path36"
       inkscape:label="path36" /><g
       id="g2145"
       transform="matrix(0.36087942,0,0,0.36087942,16.511818,367.58866)"
       inkscape:label="drink"><g
         id="g2604"
         inkscape:label="bottle"
         transform="matrix(0.73975,0,0,0.73975,729.82126,-371.76517)"><path
           d="m 358.22177,258.42866 a 140.91307,140.91307 0 0 0 -71.29039,49.33822 60.6822,60.6822 0 0 0 -9.3339,16.564 34.80392,34.80392 0 0 0 -1.04823,18.28711 c 1.08863,5.69313 2.86147,11.39051 2.54723,17.24913 a 21.3105,21.3105 0 0 1 -8.19741,15.38 c -5.79358,4.74142 -12.94531,7.11836 -20.01989,9.19975 -7.855,2.311 -16.05044,4.58694 -22.24581,10.23382 -0.75066,0.6842 -1.76841,-0.52057 -1.01889,-1.20374 10.77889,-9.8246 26.53014,-9.50889 38.649,-16.88171 5.65486,-3.4403 10.30722,-8.6056 11.1334,-15.38666 0.72247,-5.92974 -1.10067,-11.80649 -2.25276,-17.56138 a 37.13841,37.13841 0 0 1 0.35873,-17.919 56.09921,56.09921 0 0 1 8.66263,-16.86176 136.71082,136.71082 0 0 1 30.21112,-30.21576 143.412,143.412 0 0 1 43.573,-21.77563 c 0.96936,-0.29178 1.23526,1.26377 0.27223,1.55365 z"
           transform="translate(-193.15541,-174.43614)"
           fill="#ffffff"
           id="path1999" /><path
           d="M 275.61709,339.80406 A 40.74847,40.74847 0 0 0 303.391,329.29319 c 0.753,-0.68152 1.771,0.523 1.01889,1.20374 a 42.38453,42.38453 0 0 1 -28.92353,10.87876 c -1.01668,-0.0143 -0.88045,-1.58586 0.13071,-1.57163 z"
           transform="translate(-193.15541,-174.43614)"
           fill="#ffffff"
           id="path2003" /><path
           d="m 328.02045,270.99865 a 11.96711,11.96711 0 0 0 9.97209,5.43154 c 1.01635,0.001 0.879,1.573 -0.13071,1.57163 a 13.4101,13.4101 0 0 1 -11.04512,-5.98429 0.815,0.815 0 0 1 0.0924,-1.11131 0.7925,0.7925 0 0 1 1.11131,0.0924 z"
           transform="translate(-193.15541,-174.43614)"
           fill="#ffffff"
           id="path2005" /><path
           d="m 239.45907,493.51066 -39.62386,-50.94474 a 31.728,31.728 0 0 1 5.56571,-44.52646 L 365.8916,273.2128 a 60.5949,60.5949 0 0 1 32.60182,-12.61793 l 13.536,-1.04807 116.55351,-68.26853 a 9.996,9.996 0 0 1 16.97833,-10.30179 l 33.15288,42.62495 a 9.997,9.997 0 0 1 -14.218,13.87861 l -95.34249,95.34248 a 60.34767,60.34767 0 0 1 -22.94074,40.0764 L 283.98554,499.07637 a 31.72818,31.72818 0 0 1 -44.52647,-5.56571 z"
           transform="translate(-193.15541,-174.43614)"
           fill="#ffffff"
           id="path2013" /><path
           d="m 247.8297,481.2674 -34.06728,-43.80059 a 26.91882,26.91882 0 0 1 4.72231,-37.77773 l 137.98454,-107.3218 a 51.74108,51.74108 0 0 1 27.83715,-10.774 l 11.7203,-0.90751 108.03483,-63.27886 29.04392,37.342 -88.41667,88.417 a 51.52947,51.52947 0 0 1 -19.60365,34.34031 L 285.60747,485.98936 a 26.91863,26.91863 0 0 1 -37.77777,-4.722 z"
           transform="translate(-193.15541,-174.43614)"
           fill="#000000"
           id="path2037" /><path
           d="m 569.04455,224.81207 c 3.31571,0.93034 7.5724,-0.003 11.14086,-2.77869 5.23137,-4.06887 6.99845,-10.54784 3.94672,-14.47146 a 6.94635,6.94635 0 0 0 -2.02791,-1.75443 8.04153,8.04153 0 0 0 -1.12951,-7.19156 6.871,6.871 0 0 0 -1.37916,-1.3299 c 3.4408,-4.76269 4.731,-9.02 2.95783,-11.29974 a 5.04308,5.04308 0 0 0 -4.08493,-1.62119 7.55367,7.55367 0 0 0 -1.44055,-5.483 c -2.57688,-3.31311 -7.76414,-3.733 -12.46644,-1.33693 -0.0564,-0.0793 -0.10294,-0.16427 -0.1632,-0.24174 -3.05172,-3.92363 -9.76631,-3.80572 -14.99769,0.26315 a 13.93994,13.93994 0 0 0 -5.22486,7.94171 13.93992,13.93992 0 0 0 -8.98345,3.10925 c -5.23138,4.06887 -6.99846,10.54784 -3.94673,14.47147 0.1349,0.17344 0.28506,0.32882 0.43384,0.48652 l -0.062,0.0643 c -0.118,-0.18659 -0.23424,-0.37392 -0.37183,-0.55083 -3.05173,-3.92363 -9.76632,-3.80572 -14.9977,0.26315 a 13.93987,13.93987 0 0 0 -5.22485,7.94171 13.93993,13.93993 0 0 0 -8.98346,3.10925 c -5.23138,4.06887 -6.99845,10.54784 -3.94673,14.47147 3.05172,3.92363 9.76632,3.80571 14.99769,-0.26315 a 8.98706,8.98706 0 0 0 1.66848,15.2278 c -1.10511,2.66024 -1.21419,4.90209 -0.0897,6.34782 1.77318,2.27979 6.217,2.0772 11.68014,-0.0854 a 6.87074,6.87074 0 0 0 0.9495,1.66408 c 3.05173,3.92362 9.76632,3.80571 14.99769,-0.26315 a 13.94232,13.94232 0 0 0 5.22516,-7.94133 13.94236,13.94236 0 0 0 8.98316,-3.10964 15.49376,15.49376 0 0 0 3.14678,-3.28383 15.494,15.494 0 0 0 3.95738,-2.24165 c 3.56845,-2.77545 5.52105,-6.67138 5.4355,-10.11407 z"
           transform="translate(-193.15541,-174.43614)"
           fill="#f0f0f0"
           id="path2039"
           style="fill:#bfbfbf" /><path
           d="m 239.45907,493.51066 -39.62386,-50.94474 a 31.728,31.728 0 0 1 5.56571,-44.52646 L 365.8916,273.2128 a 60.5949,60.5949 0 0 1 32.60182,-12.61793 l 13.536,-1.04807 116.55351,-68.26853 a 9.996,9.996 0 0 1 16.97833,-10.30179 l 33.15288,42.62495 a 9.997,9.997 0 0 1 -14.218,13.87861 l -95.34249,95.34248 a 60.34767,60.34767 0 0 1 -22.94074,40.0764 L 283.98554,499.07637 a 31.72818,31.72818 0 0 1 -44.52647,-5.56571 z m 304.52349,-311.3063 a 7.99552,7.99552 0 0 0 -13.21121,8.94966 l 0.50692,0.86331 -118.635,69.48775 -13.99516,1.08368 a 58.60218,58.60218 0 0 0 -31.52859,12.20275 L 206.6288,399.61816 a 29.72788,29.72788 0 0 0 -5.21489,41.71988 l 39.62387,50.94474 a 29.72768,29.72768 0 0 0 41.71988,5.21489 l 162.2274,-126.17745 a 58.36536,58.36536 0 0 0 22.22785,-39.08737 l 0.0426,-0.34055 97.20674,-97.20691 0.707,0.7086 a 7.99653,7.99653 0 0 0 11.96621,-10.56468 z"
           transform="translate(-193.15541,-174.43614)"
           fill="#3f3d56"
           id="path2041" /><rect
           x="304.81262"
           y="310.79828"
           width="72"
           height="126"
           transform="rotate(-37.87511,-9.9644143,568.05842)"
           fill="#3f3d56"
           id="rect2043" /><path
           d="m 275.12087,346.34647 76.12892,97.8796 55.25456,-42.976 -76.12892,-97.8796 z"
           transform="translate(-193.15541,-174.43614)"
           fill="#3f3d56"
           id="path2045" /><circle
           cx="304.14807"
           cy="77.855919"
           r="5"
           fill="#ffffff"
           id="circle2047" /><circle
           cx="264.68048"
           cy="85.749527"
           r="5"
           fill="#ffffff"
           id="circle2049" /><circle
           cx="267.04861"
           cy="118.11297"
           r="5"
           fill="#ffffff"
           id="circle2051" /><circle
           cx="227.58102"
           cy="126.00658"
           r="5"
           fill="#ffffff"
           id="circle2053" /></g></g></g></svg>
