<?xml version="1.0" encoding="UTF-8" standalone="no"?>
<svg
   data-name="Layer 1"
   width="676"
   height="676"
   viewBox="0 0 676 676"
   version="1.1"
   id="svg38"
   sodipodi:docname="undraw_conference_speaker_re_1rna.svg"
   xml:space="preserve"
   inkscape:version="1.2.1 (9c6d41e410, 2022-07-14)"
   xmlns:inkscape="http://www.inkscape.org/namespaces/inkscape"
   xmlns:sodipodi="http://sodipodi.sourceforge.net/DTD/sodipodi-0.dtd"
   xmlns="http://www.w3.org/2000/svg"
   xmlns:svg="http://www.w3.org/2000/svg"><defs
     id="defs42" /><sodipodi:namedview
     id="namedview40"
     pagecolor="#ffffff"
     bordercolor="#000000"
     borderopacity="0.25"
     inkscape:showpageshadow="2"
     inkscape:pageopacity="0.0"
     inkscape:pagecheckerboard="0"
     inkscape:deskcolor="#d1d1d1"
     showgrid="false"
     inkscape:zoom="1.1893491"
     inkscape:cx="264.85075"
     inkscape:cy="303.94776"
     inkscape:window-width="1920"
     inkscape:window-height="991"
     inkscape:window-x="-9"
     inkscape:window-y="-9"
     inkscape:window-maximized="1"
     inkscape:current-layer="svg38" /><g
     id="g2050"
     transform="matrix(-1,0,0,0.99999958,677.5203,1.3930764)"><path
       d="m 938,450 a 337.45265,337.45265 0 0 1 -17.85,108.68 q -1.02008,3 -2.09,5.98 a 338.39278,338.39278 0 0 1 -53.77,96.05 q -10.32,12.945 -21.87,24.82 -11.55,11.895 -24.25,22.63 a 336.248,336.248 0 0 1 -165.78,75.8 h -0.01 q -11.7,1.815 -23.63,2.83 -14.205,1.2 -28.75,1.21 A 336.94,336.94 0 0 1 358.09,686.05 q -3.315,-3.39 -6.53,-6.88 -8.01,-8.685 -15.41,-17.91 -4.155,-5.19 -8.11,-10.54 A 336.714,336.714 0 0 1 287.8,579.74 332.25383,332.25383 0 0 1 276.1,546.9 c -0.24,-0.79 -0.47,-1.57995 -0.7,-2.37 q -0.75,-2.55 -1.45,-5.13 A 338.38,338.38 0 0 1 262,450 c 0,-186.67 151.33,-338 338,-338 186.67,0 338,151.33 338,338 z"
       fill="#f2f2f2"
       id="path2"
       transform="translate(-262,-112)" /><g
       id="g1969"
       inkscape:label="bubble"
       transform="matrix(0.96486688,0,0,1.0072904,10.838924,2.4013175)"><path
         d="M 402.36877,245.51421 H 191.31665 c -39.98093,0 -72.3919,-21.34051 -72.3919,-58.78208 v -1.2e-4 c 0,-37.44158 32.41097,-53.04723 72.39188,-53.04723 h 66.26839 c 79.96186,0 144.78375,36.94614 144.78375,111.82929 z"
         fill="#ffffff"
         id="path1196-6"
         style="stroke-width:0.602677" /><path
         d="m 191.31662,247.26375 h 212.92051 v -1.74967 c 0,-35.8281 -14.91964,-65.35552 -43.146,-85.39017 -25.98142,-18.44104 -61.77312,-28.18867 -103.50617,-28.18867 h -66.26834 c -21.40651,0 -39.47745,4.42572 -52.25959,12.79903 -14.59856,9.56281 -22.00062,23.69288 -22.00062,41.99779 0,18.35192 7.56946,33.83896 21.88989,44.78693 13.28074,10.15316 31.87944,15.74476 52.37032,15.74476 z m 209.17227,-3.49934 H 191.31662 c -42.18233,0 -70.52354,-22.91944 -70.52354,-57.03235 0,-46.29907 49.31925,-51.29748 70.52354,-51.29748 h 66.26834 c 68.59222,0 141.85223,28.49879 142.90395,108.32983 z"
         fill="#e5e5e5"
         id="path1198-9"
         style="stroke-width:0.602677" /><rect
         x="-305.73444"
         y="168.63223"
         width="24.928297"
         height="5.62009"
         fill="#252525"
         id="rect1200-0"
         style="stroke-width:0.602677"
         transform="scale(-1,1)" /><rect
         x="-203.25142"
         y="168.63223"
         width="8.7710648"
         height="5.62009"
         fill="#252525"
         id="rect1202-3"
         style="stroke-width:0.602677"
         transform="scale(-1,1)" /><rect
         x="-185.7093"
         y="168.63223"
         width="8.7710648"
         height="5.62009"
         fill="#252525"
         id="rect1204-9"
         style="stroke-width:0.602677"
         transform="scale(-1,1)" /><rect
         x="-272.03503"
         y="168.63223"
         width="59.550922"
         height="5.62009"
         fill="#252525"
         id="rect1206-0"
         style="stroke-width:0.602677"
         transform="scale(-1,1)" /><rect
         x="-337.12561"
         y="204.94666"
         width="24.928297"
         height="5.62009"
         fill="#252525"
         id="rect1208-2"
         style="stroke-width:0.602677"
         transform="scale(-1,1)" /><rect
         x="-234.64262"
         y="204.94666"
         width="8.7710648"
         height="5.62009"
         fill="#252525"
         id="rect1210-5"
         style="stroke-width:0.602677"
         transform="scale(-1,1)" /><rect
         x="-217.10049"
         y="204.94666"
         width="8.7710648"
         height="5.62009"
         fill="#252525"
         id="rect1212-7"
         style="stroke-width:0.602677"
         transform="scale(-1,1)" /><rect
         x="-303.42627"
         y="204.94666"
         width="59.550922"
         height="5.62009"
         fill="#252525"
         id="rect1214-4"
         style="stroke-width:0.602677"
         transform="scale(-1,1)" /><rect
         x="-234.18095"
         y="181.16936"
         width="24.928297"
         height="5.62009"
         fill="#252525"
         id="rect1216-1"
         style="stroke-width:0.602677"
         transform="scale(-1,1)" /><rect
         x="-200.48163"
         y="181.16936"
         width="24.928297"
         height="5.62009"
         fill="#252525"
         id="rect1218-8"
         style="stroke-width:0.602677"
         transform="scale(-1,1)" /><rect
         x="-166.78227"
         y="181.16936"
         width="8.7710648"
         height="5.62009"
         fill="#252525"
         id="rect1220-0"
         style="stroke-width:0.602677"
         transform="scale(-1,1)" /><rect
         x="-319.5835"
         y="181.16936"
         width="8.7710648"
         height="5.62009"
         fill="#252525"
         id="rect1222-4"
         style="stroke-width:0.602677"
         transform="scale(-1,1)" /><rect
         x="-302.04135"
         y="181.16936"
         width="59.550922"
         height="5.62009"
         fill="#252525"
         id="rect1224-7"
         style="stroke-width:0.602677"
         transform="scale(-1,1)" /><rect
         x="-285.88409"
         y="193.27419"
         width="24.928297"
         height="5.62009"
         fill="#252525"
         id="rect1226-7"
         style="stroke-width:0.602677"
         transform="scale(-1,1)" /><rect
         x="-319.5835"
         y="193.27419"
         width="24.928297"
         height="5.62009"
         fill="#252525"
         id="rect1228-2"
         style="stroke-width:0.602677"
         transform="scale(-1,1)" /><rect
         x="-166.78227"
         y="193.27419"
         width="8.7710648"
         height="5.62009"
         fill="#252525"
         id="rect1230-7"
         style="stroke-width:0.602677"
         transform="scale(-1,1)" /><rect
         x="-184.32442"
         y="193.27419"
         width="8.7710648"
         height="5.62009"
         fill="#252525"
         id="rect1232-9"
         style="stroke-width:0.602677"
         transform="scale(-1,1)" /><rect
         x="-252.64639"
         y="193.27419"
         width="59.550922"
         height="5.62009"
         fill="#252525"
         id="rect1234-6"
         style="stroke-width:0.602677"
         transform="scale(-1,1)" /></g><path
       d="m 692.33,753.02 -6.84,24.07 a 337.62955,337.62955 0 0 1 -33.1,6.87 h -0.01 q -11.7,1.815 -23.63,2.83 L 651,755 l 3.16,-0.28 z"
       transform="translate(-262,-112)"
       fill="#2f2e41"
       id="path4" /><path
       d="m 864.29,660.71 q -10.32,12.945 -21.87,24.82 l -26.38,0.02 -141.87,0.16 -25.54,0.03 -16.98,0.02 -25.26,0.02 -19.43,0.02 -35.89,0.04 -21.17,0.03 -44.58,0.04 -21.28,0.03 -58.97,0.06 -37.04,0.04 -9.94,0.01 q -3.315,-3.39 -6.53,-6.88 -8.01,-8.685 -15.41,-17.91 l 20.58,-0.02 14.02,-0.01 32.46,-0.04 62.64,-0.06 21.17,-0.02 8.56,-0.01 h 0.03 l 6.72,-0.01 3.01,-0.01 7.71,-0.01 h 3.26 l 22.86,-0.02 49.31,-0.06 21.7,-0.02 20.78,-0.02 19.48,-0.02 27.95,-0.03 149.28,-0.15 z"
       transform="translate(-262,-112)"
       fill="#cccccc"
       id="path6" /><ellipse
       cx="244.01981"
       cy="558.88336"
       rx="20.13233"
       ry="6.42521"
       fill="#3f3d56"
       id="ellipse8" /><ellipse
       cx="244.01981"
       cy="554.59991"
       rx="20.13233"
       ry="6.42521"
       fill="#3f3d56"
       id="ellipse10" /><path
       d="m 502.48018,670.90564 3,-0.0449 -0.82764,-56.01855 a 52.25792,52.25792 0 0 1 25.36915,-45.5 l 57.25931,-34.22608 -1.53906,-2.57519 -57.25932,34.2271 a 55.26517,55.26517 0 0 0 -26.83008,48.11914 z"
       transform="translate(-262,-112)"
       fill="#3f3d56"
       id="path12" /><rect
       x="578.51263"
       y="500.40106"
       width="14.56381"
       height="59.968651"
       rx="7.2818999"
       transform="rotate(180,454.79456,474.3854)"
       fill="#252525"
       id="rect14" /><path
       d="m 741.86308,505.30705 -17.3206,44.34448 0.0173,0.17253 c 1.72662,17.03672 28.34206,32.81193 50.36559,43.045 a 31.59624,31.59624 0 0 0 40.98449,-13.455 v 0 a 31.66589,31.66589 0 0 0 -2.02245,-33.36659 L 796.401,521.56 Z"
       transform="translate(-262,-112)"
       fill="#252525"
       id="path18" /><path
       d="m 842.26,589.29 -9.21,33.15 -5.38,38.31 -1.66,11.78 -0.04,0.25 -10.23,9.72 0.3,3.05 0.8,8.13 1.33,14.48 a 336.484,336.484 0 0 1 -165.78,75.8 c -0.01,0.01 -0.01,0 -0.01,0 -8.17,-2.34 -14.58,-4.88 -17.16,-6.73 -1.02,-0.72 -1.48,-1.36 -1.46,-2.01 0.11,-4.33 12.4,-19.87 14.26,-22.2 l 4.88,-20.2 9.96,-3.96 -2.46,-14.21 13.32,-14.06 0.38,-14.47 0.07,-0.41 4.22,-24.81 8.42,-49.41 0.86,-5.06 -0.78,-39.02 -0.23,-11.82 -0.27,-13.48 a 55.41152,55.41152 0 0 1 0.76,-10.35 53.31269,53.31269 0 0 1 1.84,-7.6 55.24513,55.24513 0 0 1 27.4,-32.29 c 0.51,-0.26 1.02,-0.51 1.54,-0.76 0,0 0,-0.01 0.01,0 a 54.90616,54.90616 0 0 1 12.55,-4.17 l 1.26,-2.24 12.34,-21.92 37.81994,0.97 22.56,35.31 18.83,18.69 A 73.31171,73.31171 0 0 1 842.26,589.29 Z"
       transform="translate(-262,-112)"
       fill="#252525"
       id="path20" /><circle
       cx="497.69949"
       cy="289.84958"
       r="50.1036"
       fill="#a0616a"
       id="circle22" /><path
       d="m 753.58721,452.62357 a 136.26549,136.26549 0 0 0 23.18064,-1.62 c 7.59923,-1.54533 24.59947,-14.00321 29.33857,-21.4998 v 0 c 3.52093,-5.56988 5.77245,-14.26767 7.04152,-20.583 a 60.91435,60.91435 0 0 0 -10.65372,-48.35812 19.24493,19.24493 0 0 0 -7.77316,-6.63436 c -0.27845,-0.10888 -0.565,-0.20537 -0.85455,-0.28786 a 23.74467,23.74467 0 0 1 -11.81175,-7.30888 19.58284,19.58284 0 0 0 -1.96357,-2.02086 29.24834,29.24834 0 0 0 -12.20275,-6.12729 c -7.25395,-1.94141 -17.752,-0.0143 -31.20185,5.73333 -6.75724,2.88773 -14.14724,1.84266 -19.83225,0.60946 a 1.86017,1.86017 0 0 0 -1.75136,0.6 13.13152,13.13152 0 0 1 -8.92486,3.55767 c -2.032,0.0892 -4.16392,2.90277 -6.74081,6.57173 -0.5847,0.83285 -1.267,1.80487 -1.75914,2.39607 l -0.0661,-1.13583 -1.14926,1.26711 a 15.93482,15.93482 0 0 0 7.19416,25.96108 31.07643,31.07643 0 0 0 6.2501,0.996 c 1.27917,0.11508 2.60234,0.23412 3.87033,0.45412 a 24.02454,24.02454 0 0 1 17.85279,15.59016 6.28287,6.28287 0 0 0 9.483,3.05032 10.38066,10.38066 0 0 1 9.459,-1.72244 6.8913,6.8913 0 0 1 3.046,3.455 8.98034,8.98034 0 0 0 3.40768,3.97566 c 5.14969,2.65507 5.50461,14.41709 3.6551,24.22218 -1.78279,9.45122 -5.307,16.28835 -8.57,16.62633 -2.512,0.25987 -2.79926,0.43831 -2.98113,0.88257 l -0.16247,0.39771 0.28219,0.372 a 10.26073,10.26073 0 0 0 4.33762,0.57994 z"
       transform="translate(-262,-112)"
       fill="#2f2e41"
       id="path24" /><path
       d="M 721.13324,591.12423 701.8146,552.60874 c -28.04093,1.91543 -83.6946,34.33734 -83.6946,34.33734 l -105.29872,22.32555 a 19.02347,19.02347 0 1 0 5.18644,32.5081 L 651.954,632.17847 Z"
       transform="translate(-262,-112)"
       fill="#a0616a"
       id="path26" /><path
       d="m 713.34148,597.44838 50.45383,-37.4945 8.88732,-32.0271 a 34.98194,34.98194 0 0 0 -10.52128,-35.39424 v 0 a 34.89929,34.89929 0 0 0 -47.624,1.53654 c -18.98655,18.95124 -40.64184,45.39 -35.99009,63.72324 l 0.0471,0.18583 z"
       transform="translate(-262,-112)"
       fill="#252525"
       id="path28" /><path
       d="m 348.48,548.11 c -0.06,0.09 -0.12,0.18 -0.19,0.28 a 48.04572,48.04572 0 0 0 -6,-0.01 q -1.70994,0.105 -3.42,0.33 a 7.17893,7.17893 0 0 0 -3.08,13.02 l 0.12,0.08 c 0.09,0.06 0.16,0.11 0.25,0.17 a 70.53036,70.53036 0 0 1 -48.36,17.76 332.25383,332.25383 0 0 1 -11.7,-32.84 43.49067,43.49067 0 0 1 19.33,-10.51 c 14.5,-3.5 30.68,0.45 45.19,-0.99 6.98,-0.69 11.83,6.92 7.86,12.71 z"
       transform="translate(-262,-112)"
       fill="#ffffff"
       id="path30" /><path
       d="m 361.17,436.69 c -0.04,0.11 -0.0799,0.23 -0.13,0.35 -1.14,0.07 -2.28,0.19 -3.42,0.34 a 7.1723,7.1723 0 0 0 -3.08,13.01 l 0.12,0.09 a 70.90452,70.90452 0 0 1 -6.34,8.78 73.50659,73.50659 0 0 1 -53.01,25.53 c -0.66,0.02 -1.3,0.04 -1.95,0.04 a 174.57918,174.57918 0 0 1 -10.84,44.02 160.236,160.236 0 0 1 -7.12,15.68 q -0.75,-2.55 -1.45,-5.13 c 0.12,-0.23 0.23,-0.44995 0.34,-0.68 a 161.94169,161.94169 0 0 0 6.99,-16.77 q 2.47494,-7.035 4.32,-14.25 a 170.46277,170.46277 0 0 0 1.04,-79.74 45.36209,45.36209 0 0 1 -8.46,-25.83 34.64872,34.64872 0 0 1 1.29,-9.88 c 0.77,0.51 1.58,0.99 2.38,1.44 0.25,0.14 0.51,0.28 0.77,0.42 l 0.09,0.05 a 5.23769,5.23769 0 0 0 7.59,-5.81 c -0.14,-0.61 -0.29,-1.22 -0.43,-1.83 -0.22,-0.94 -0.45,-1.88 -0.66,-2.82 a 1.56671,1.56671 0 0 1 -0.08,-0.29 c -0.25,-1.07 -0.51,-2.13 -0.76,-3.2 a 15.11766,15.11766 0 0 1 6.57,-2.16 c 8.01,-0.64 15.41,6.07 17.18,13.9 1.8,7.84 -1.19,16.18 -6.17,22.48 -4.27,5.39 -9.88,9.52 -15.72,13.2 0.13,0.6 0.28,1.19 0.41,1.78 a 172.44785,172.44785 0 0 1 3.76,33.33 c 3.56,-10.62 11.27,-21.75 18.25,-27.96 7.95,-7.07 18.43,-11.2 28.19,-15.92 11.71,-5.67 24.69,5.56 20.33,17.83 z"
       transform="translate(-262,-112)"
       fill="#ffffff"
       id="path32" /><path
       d="m 898.92,591.47 c 1.67,2.12 3.4,4.23 5.13,6.35 a 335.12226,335.12226 0 0 1 -20.06,35.52 q -0.825,-0.58494 -1.65,-1.17 a 2.11907,2.11907 0 0 1 -0.25,-0.16 c -2.05,-1.46 -4.11005,-2.9 -6.16,-4.36005 v -0.01 a 70.003,70.003 0 0 1 -2.81,-17.7 5.288,5.288 0 0 0 1.23,-9.86 c -0.27,-0.47 -0.46,-0.81 -0.73,-1.29 0.01,-0.12 0.03,-0.25 0.04,-0.37 C 875.23,585.93 891.15,581.57 898.92,591.47 Z"
       transform="translate(-262,-112)"
       fill="#ffffff"
       id="path34" /><path
       d="m 916.87,548.67 q 1.8,4.95 3.28,10.01 -1.02008,3 -2.09,5.98 -0.405,-1.575 -0.84,-3.15 a 161.95532,161.95532 0 0 0 -5.85,-17.2 q -2.79,-6.915 -6.18,-13.54 a 170.35634,170.35634 0 0 0 -51.96,-60.5 45.35008,45.35008 0 0 1 -23.43,-13.78 34.85779,34.85779 0 0 1 -5.57,-8.26 c 0.92,-0.13 1.84,-0.31 2.74,-0.5 0.28,-0.06 0.57,-0.13 0.85,-0.19 l 0.11,-0.02 a 5.24142,5.24142 0 0 0 1.85,-9.38 c -0.51,-0.37 -1.03,-0.73 -1.54,-1.09 -0.78,-0.57 -1.57,-1.11 -2.36,-1.67 a 2.48881,2.48881 0 0 1 -0.24,-0.17 c -0.9,-0.63995 -1.8,-1.26 -2.69,-1.91 a 15.19516,15.19516 0 0 1 3.49,-5.96 c 5.59,-5.77 15.57,-5.64 22.09,-0.94 6.53,4.7 9.81,12.93 10.23,20.95 0.37,6.87 -1.11,13.67 -3.06,20.3 0.49,0.36005 1,0.7 1.49,1.07 a 171.32637,171.32637 0 0 1 24.86,22.51 c -4.35,-10.32 -5.93,-23.78 -4.8,-33.05 1.29,-10.56 6.42,-20.59 10.62,-30.58 5.03,-12 22.19,-12.16 27.03,-0.08 0.05,0.12 0.1,0.23 0.14,0.35 q -1.215,1.215 -2.34,2.52 a 7.175,7.175 0 0 0 6.29,11.8 l 0.15,-0.02 a 72.0958,72.0958 0 0 1 1.06,10.79 73.50775,73.50775 0 0 1 -22.88,54.2 c -0.48,0.45 -0.95,0.89 -1.44,1.32 a 170.65756,170.65756 0 0 1 12.45,20.67 172.445,172.445 0 0 1 8.54,19.52 z"
       transform="translate(-262,-112)"
       fill="#ffffff"
       id="path36" /></g></svg>
